<svg width="1024" height="1024" viewBox="0 0 1024 1024" fill="none" xmlns="http://www.w3.org/2000/svg">
<rect width="1024" height="1024" rx="150" fill="white"/>
<path d="M820.592 613.367C817.682 611.604 813.898 612.12 811.575 614.657C776.79 652.696 731.799 677.661 681.482 686.865C620.105 698.075 557.989 684.743 506.626 649.263C455.269 613.79 420.8 560.434 409.575 499.035C398.343 437.637 411.697 375.536 447.177 324.179C482.657 272.823 536.006 238.353 597.405 227.121C608.314 225.129 619.753 224.025 633.401 223.652C636.82 223.559 639.694 221.065 640.267 217.696C640.848 214.327 638.956 211.016 635.766 209.79C580.783 188.746 520.947 183.262 462.759 193.899C287.839 225.896 171.557 394.229 203.547 569.15C219.043 653.886 266.608 727.513 337.482 776.475C391.986 814.127 455.241 833.716 520.087 833.716C539.576 833.716 559.215 831.946 578.783 828.362C690.57 807.92 784.367 728.831 823.596 621.961C824.778 618.75 823.524 615.145 820.592 613.367Z" fill="black"/>
</svg>
