<svg width="990" height="261" viewBox="0 0 990 261" fill="none" xmlns="http://www.w3.org/2000/svg">
<path d="M395 202.2C383.4 202.2 373.4 200.333 365 196.6C356.733 192.733 349.133 186.933 342.2 179.2L362.6 159C367.133 164.2 372.133 168.267 377.6 171.2C383.2 174 389.667 175.4 397 175.4C403.667 175.4 408.8 174.2 412.4 171.8C416.133 169.4 418 166.067 418 161.8C418 157.933 416.8 154.8 414.4 152.4C412 150 408.8 147.933 404.8 146.2C400.933 144.467 396.6 142.8 391.8 141.2C387.133 139.6 382.467 137.8 377.8 135.8C373.133 133.667 368.8 131.067 364.8 128C360.933 124.8 357.8 120.867 355.4 116.2C353 111.4 351.8 105.4 351.8 98.2C351.8 89.5333 353.867 82.0667 358 75.8C362.267 69.5333 368.133 64.8 375.6 61.6C383.067 58.2667 391.667 56.6 401.4 56.6C411.267 56.6 420.267 58.3333 428.4 61.8C436.667 65.2667 443.467 70 448.8 76L428.4 96.2C424.133 91.8 419.8 88.5333 415.4 86.4C411.133 84.2667 406.267 83.2 400.8 83.2C395.333 83.2 391 84.2667 387.8 86.4C384.6 88.4 383 91.3333 383 95.2C383 98.8 384.2 101.733 386.6 104C389 106.133 392.133 108 396 109.6C400 111.2 404.333 112.8 409 114.4C413.8 116 418.533 117.867 423.2 120C427.867 122.133 432.133 124.867 436 128.2C440 131.4 443.2 135.533 445.6 140.6C448 145.533 449.2 151.667 449.2 159C449.2 172.467 444.4 183.067 434.8 190.8C425.2 198.4 411.933 202.2 395 202.2ZM480.202 200V62.6H510.802V200H480.202ZM458.202 128.8V102.8H532.802V128.8H458.202ZM546.284 200V102.8H576.884V200H546.284ZM576.884 146.6L564.084 136.6C566.618 125.267 570.884 116.467 576.884 110.2C582.884 103.933 591.218 100.8 601.884 100.8C606.551 100.8 610.618 101.533 614.084 103C617.684 104.333 620.818 106.467 623.484 109.4L605.284 132.4C603.951 130.933 602.284 129.8 600.284 129C598.284 128.2 596.018 127.8 593.484 127.8C588.418 127.8 584.351 129.4 581.284 132.6C578.351 135.667 576.884 140.333 576.884 146.6ZM631.636 200V102.8H662.236V200H631.636ZM647.036 89.4C642.236 89.4 638.236 87.8 635.036 84.6C631.969 81.2667 630.436 77.2667 630.436 72.6C630.436 67.8 631.969 63.8 635.036 60.6C638.236 57.4 642.236 55.8 647.036 55.8C651.836 55.8 655.769 57.4 658.836 60.6C661.903 63.8 663.436 67.8 663.436 72.6C663.436 77.2667 661.903 81.2667 658.836 84.6C655.769 87.8 651.836 89.4 647.036 89.4ZM714.384 200L673.184 102.8H706.184L734.184 183.8H719.784L747.784 102.8H780.184L738.984 199.8L714.384 200ZM791.206 200V102.8H821.806V200H791.206ZM806.606 89.4C801.806 89.4 797.806 87.8 794.606 84.6C791.54 81.2667 790.006 77.2667 790.006 72.6C790.006 67.8 791.54 63.8 794.606 60.6C797.806 57.4 801.806 55.8 806.606 55.8C811.406 55.8 815.34 57.4 818.406 60.6C821.473 63.8 823.006 67.8 823.006 72.6C823.006 77.2667 821.473 81.2667 818.406 84.6C815.34 87.8 811.406 89.4 806.606 89.4ZM884.755 202C875.555 202 867.355 199.8 860.155 195.4C853.088 191 847.488 185 843.355 177.4C839.355 169.8 837.355 161.133 837.355 151.4C837.355 141.667 839.355 133 843.355 125.4C847.488 117.8 853.088 111.8 860.155 107.4C867.355 103 875.555 100.8 884.755 100.8C891.421 100.8 897.421 102.067 902.755 104.6C908.221 107.133 912.688 110.667 916.155 115.2C919.755 119.6 921.755 124.667 922.155 130.4V171.4C921.755 177.133 919.821 182.333 916.355 187C912.888 191.533 908.421 195.2 902.955 198C897.488 200.667 891.421 202 884.755 202ZM890.155 174.4C894.555 174.4 898.355 173.467 901.555 171.6C904.755 169.6 907.288 166.867 909.155 163.4C911.021 159.933 911.955 155.933 911.955 151.4C911.955 146.867 911.021 142.933 909.155 139.6C907.421 136.133 904.888 133.4 901.555 131.4C898.355 129.4 894.621 128.4 890.355 128.4C886.088 128.4 882.288 129.4 878.955 131.4C875.755 133.4 873.155 136.133 871.155 139.6C869.288 143.067 868.355 147 868.355 151.4C868.355 155.8 869.288 159.733 871.155 163.2C873.021 166.667 875.621 169.4 878.955 171.4C882.288 173.4 886.021 174.4 890.155 174.4ZM940.755 200H910.755V173.8L915.355 150.2L910.155 126.6V54.8H940.755V200Z" fill="black"/>
<rect x="37" width="250" height="250" rx="125" fill="url(#paint0_linear_13_18)"/>
<g filter="url(#filter0_dd_13_18)">
<path d="M128.192 49.7256C140.847 33.6549 164.133 30.8855 180.204 43.54L217.916 73.2354C219.201 74.2477 219.423 76.1107 218.411 77.3963C205.756 93.4671 182.47 96.2365 166.399 83.5819L128.687 53.8866C127.401 52.8742 127.18 51.0113 128.192 49.7256Z" fill="white"/>
<path d="M115.865 65.3806C116.877 64.095 118.74 63.8734 120.026 64.8858L200.949 128.607C217.02 141.262 219.789 164.548 207.135 180.619C206.123 181.904 204.26 182.126 202.974 181.114L122.051 117.392C105.98 104.738 103.21 81.4514 115.865 65.3806Z" fill="white"/>
<path d="M104.589 168.603C117.244 152.532 140.53 149.763 156.601 162.417L194.313 192.113C195.598 193.125 195.82 194.988 194.808 196.274C182.153 212.345 158.867 215.114 142.796 202.459L105.084 172.764C103.798 171.752 103.577 169.889 104.589 168.603Z" fill="white"/>
</g>
<defs>
<filter id="filter0_dd_13_18" x="65.9539" y="9.6001" width="191.092" height="250.799" filterUnits="userSpaceOnUse" color-interpolation-filters="sRGB">
<feFlood flood-opacity="0" result="BackgroundImageFix"/>
<feColorMatrix in="SourceAlpha" type="matrix" values="0 0 0 0 0 0 0 0 0 0 0 0 0 0 0 0 0 0 127 0" result="hardAlpha"/>
<feMorphology radius="4" operator="erode" in="SourceAlpha" result="effect1_dropShadow_13_18"/>
<feOffset dy="12"/>
<feGaussianBlur stdDeviation="21"/>
<feColorMatrix type="matrix" values="0 0 0 0 0.0941176 0 0 0 0 0.152941 0 0 0 0 0.294118 0 0 0 0.12 0"/>
<feBlend mode="normal" in2="BackgroundImageFix" result="effect1_dropShadow_13_18"/>
<feColorMatrix in="SourceAlpha" type="matrix" values="0 0 0 0 0 0 0 0 0 0 0 0 0 0 0 0 0 0 127 0" result="hardAlpha"/>
<feMorphology radius="6" operator="erode" in="SourceAlpha" result="effect2_dropShadow_13_18"/>
<feOffset dy="8"/>
<feGaussianBlur stdDeviation="9"/>
<feColorMatrix type="matrix" values="0 0 0 0 0.0941176 0 0 0 0 0.152941 0 0 0 0 0.294118 0 0 0 0.12 0"/>
<feBlend mode="normal" in2="effect1_dropShadow_13_18" result="effect2_dropShadow_13_18"/>
<feBlend mode="normal" in="SourceGraphic" in2="effect2_dropShadow_13_18" result="shape"/>
</filter>
<linearGradient id="paint0_linear_13_18" x1="266" y1="56" x2="60" y2="201.5" gradientUnits="userSpaceOnUse">
<stop stop-color="#F835AA"/>
<stop offset="1" stop-color="#EA9C26"/>
</linearGradient>
</defs>
</svg>
