<svg width="272" height="228" viewBox="0 0 272 228" fill="none" xmlns="http://www.w3.org/2000/svg">
<g opacity="0.17">
<path d="M231 87C231.66 87 232.32 87 233 87C236.118 93.2368 233.674 102.553 232.438 109.125C232.174 110.532 232.174 110.532 231.905 111.967C229.05 126.486 225.366 141.05 218.812 154.375C218.332 155.356 218.332 155.356 217.841 156.357C216.063 159.722 214.685 161.774 211 163C210.01 162.01 209.02 161.02 208 160C207.674 161.158 207.348 162.315 207.012 163.508C206.571 165.047 206.129 166.586 205.688 168.125C205.474 168.886 205.261 169.646 205.041 170.43C201.298 183.39 201.298 183.39 197 186C193.688 186.25 193.688 186.25 190 185C188.145 182.753 186.703 180.464 185.262 177.934C184.845 177.296 184.429 176.657 184 176C183.34 176 182.68 176 182 176C180.149 178.726 178.519 181.556 176.852 184.398C174.923 187.108 174.173 188.139 171 189C168.556 188.858 166.117 188.618 163.688 188.312C158.605 187.735 158.605 187.735 153.742 189.039C152.159 190.357 150.58 191.678 149 193C143.436 193.987 140.88 193.22 136.188 190.125C134.783 189.096 133.386 188.055 132 187C130.515 186.01 130.515 186.01 129 185C128.89 185.904 128.781 186.807 128.668 187.738C128.509 188.918 128.351 190.097 128.188 191.312C127.961 193.07 127.961 193.07 127.73 194.863C126.692 199.325 126.692 199.325 124 201C120.392 201.47 118.287 201.017 115.375 198.875C109.188 193.992 104.676 187.275 100 181C99.67 182.65 99.34 184.3 99 186C93.5373 185.633 90.6664 183.51 86.875 179.812C86.313 179.276 85.7509 178.739 85.1719 178.186C72.1089 165.487 50.4529 143.888 49 125C54.0467 125.395 56.8546 128.108 60.4375 131.375C61.6738 132.467 62.9121 133.557 64.1523 134.645C64.7851 135.201 65.4179 135.757 66.0698 136.331C69.1471 138.992 72.309 141.539 75.5 144.062C76.0626 144.515 76.6252 144.967 77.2048 145.433C83.1067 150.129 83.1067 150.129 90.1953 152.18C94.3509 151.524 96.7544 150.574 100 148C102.391 147.688 102.391 147.688 105 148C106.879 149.504 106.879 149.504 108.562 151.562C109.452 152.649 109.452 152.649 110.359 153.758C112.522 156.714 114.234 159.795 116 163C116.66 163.33 117.32 163.66 118 164C118.227 163.402 118.454 162.804 118.688 162.188C120.417 159.306 121.922 158.329 125 157C128.834 157.08 130.527 157.61 133.5 160.062C135.85 162.191 135.85 162.191 138.75 162.5C141.791 162.032 143.385 161.37 146.062 160C150.148 157.995 153.222 157.863 157.75 158.062C162.772 158.308 162.772 158.308 167.062 155.812C167.702 154.884 168.341 153.956 169 153C172.962 148.019 172.962 148.019 175 147C180.144 146.612 182.728 147.206 187 150C187.037 149.227 187.075 148.453 187.113 147.656C188.041 132.959 188.041 132.959 192 129C195.206 129.092 198.403 129.263 201.605 129.453C205.9 128.88 208.208 127.158 211 124C212.652 121.727 213.995 119.354 215.312 116.875C215.873 115.853 215.873 115.853 216.446 114.81C219.92 108.376 223.044 101.771 226.081 95.1206C226.435 94.3512 226.788 93.5818 227.152 92.7891C227.462 92.1054 227.771 91.4217 228.09 90.7173C229 89 229 89 231 87Z" fill="#A70100"/>
<path d="M44 45C51.1755 50.0056 57.7358 55.661 64.125 61.625C78.0157 74.5741 93.25 85.5032 112.879 85.2031C117.673 84.8911 122.314 84.0332 127 83C124.211 88.3418 121.117 92.3657 116.812 96.5625C116.24 97.1275 115.667 97.6925 115.076 98.2747C107.403 105.694 99.556 111.243 88.6641 112.078C76.8701 111.732 66.107 101.797 57.6875 94.3125C53.2787 90.577 49.1383 88.6972 43.75 86.875C36.5193 84.4225 31.5494 81.8756 27.9297 74.9531C26.3485 71.164 25.8788 68.1217 26 64C26.513 64.4447 27.0261 64.8895 27.5547 65.3477C36.0179 71.6025 44.095 70.1869 54 69C45.7036 59.7159 33.2347 50.2926 20.4375 49.5625C15.7189 49.6931 12.93 51.5137 9 54C8.34 53.67 7.68 53.34 7 53C16.0704 41.623 30.4926 37.4645 44 45Z" fill="#A70100"/>
<path d="M251.223 7.92971C253 9.00002 253 9.00002 255 11C254.056 10.8395 254.056 10.8395 253.094 10.6758C245.786 9.65227 240.687 10.38 234.625 14.6875C234.089 15.1206 233.552 15.5538 233 16C232.34 16 231.68 16 231 16C230.737 16.5775 230.474 17.155 230.203 17.75C228.937 20.1185 227.477 21.9466 225.75 24C221.586 29.2292 218.793 34.9545 216 41C229.493 38.19 229.493 38.19 239 29C239.66 28.34 240.32 27.68 241 27C243.333 31.6659 242.509 38.2324 241.062 43.125C239.226 47.4753 235.95 50.1065 232.352 53.043C227.716 56.9006 224.345 60.7216 221.312 65.9375C206.625 90.4584 206.625 90.4584 196 94C180.602 95.3692 167.863 89.8498 155 82C153.07 80.2539 153.07 80.2539 152 79C153.039 78.8415 154.078 78.6829 155.148 78.5196C171.058 75.9322 181.972 70.1713 192 57.0625C196.316 50.8538 199.864 44.2253 203.477 37.5938C205.841 33.2629 208.29 28.9904 210.812 24.75C211.161 24.1548 211.51 23.5596 211.869 22.9463C215.081 17.5857 218.52 12.4764 224 9.25002C224.959 8.66995 224.959 8.66995 225.938 8.07815C234.517 3.59345 242.54 3.69047 251.223 7.92971Z" fill="#A70100"/>
</g>
</svg>
